<svg xmlns="http://www.w3.org/2000/svg" xmlns:xlink="http://www.w3.org/1999/xlink" width="500" zoomAndPan="magnify" viewBox="0 0 375 120" height="150" preserveAspectRatio="xMidYMid meet" version="1.2"><defs><clipPath id="a466c742f1"><path d="M 0 99 L 116 99 L 116 112.5 L 0 112.5 Z M 0 99 "/></clipPath><clipPath id="86a494c4cf"><path d="M 0 0 L 13 0 L 13 112.5 L 0 112.5 Z M 0 0 "/></clipPath><clipPath id="43193aeed8"><path d="M 361 0 L 375 0 L 375 112.5 L 361 112.5 Z M 361 0 "/></clipPath></defs><g id="5790ad472f"><g style="fill:#000000;fill-opacity:1;"><g transform="translate(28.798244, 91.804731)"><path style="stroke:none" d="M 18.4375 -13.078125 L 18.4375 -77.71875 C 18.4375 -78.769531 17.90625 -79.296875 16.84375 -79.296875 L 6.546875 -79.296875 C 5.484375 -79.296875 4.953125 -78.769531 4.953125 -77.71875 L 4.953125 -1.59375 C 4.953125 -0.53125 5.484375 0 6.546875 0 L 42.03125 0 C 43.082031 0 43.609375 -0.53125 43.609375 -1.59375 L 43.609375 -11.5 C 43.609375 -12.550781 43.082031 -13.078125 42.03125 -13.078125 Z M 18.4375 -13.078125 "/></g></g><g style="fill:#000000;fill-opacity:1;"><g transform="translate(68.939439, 91.804731)"><path style="stroke:none" d="M 44.5 -67.796875 L 44.5 -57.890625 C 44.5 -56.765625 43.972656 -56.203125 42.921875 -56.203125 L 18.4375 -56.203125 L 18.4375 -40.9375 L 37.078125 -40.9375 C 38.128906 -40.9375 38.65625 -40.375 38.65625 -39.25 L 38.65625 -29.4375 C 38.65625 -28.3125 38.128906 -27.75 37.078125 -27.75 L 18.4375 -27.75 L 18.4375 -13.078125 L 42.921875 -13.078125 C 43.972656 -13.078125 44.5 -12.550781 44.5 -11.5 L 44.5 -1.59375 C 44.5 -0.53125 43.972656 0 42.921875 0 L 6.4375 0 C 5.445312 0 4.953125 -0.53125 4.953125 -1.59375 L 4.953125 -67.796875 C 4.953125 -68.859375 5.445312 -69.390625 6.4375 -69.390625 L 42.921875 -69.390625 C 43.972656 -69.390625 44.5 -68.859375 44.5 -67.796875 Z M 44.5 -67.796875 "/></g></g><g style="fill:#8ebb7a;fill-opacity:1;"><g transform="translate(109.973678, 91.804731)"><path style="stroke:none" d="M 51.75 0 L 42.125 0 C 41.269531 0 40.742188 -0.460938 40.546875 -1.390625 L 37.375 -13.875 L 18.734375 -13.875 L 15.65625 -1.390625 C 15.457031 -0.460938 14.929688 0 14.078125 0 L 4.359375 0 C 3.171875 0 2.742188 -0.5625 3.078125 -1.6875 L 19.53125 -68 C 19.726562 -68.925781 20.289062 -69.390625 21.21875 -69.390625 L 34.984375 -69.390625 C 35.910156 -69.390625 36.472656 -68.925781 36.671875 -68 L 53.125 -1.6875 C 53.457031 -0.5625 53 0 51.75 0 Z M 34.296875 -25.375 L 28.046875 -52.34375 L 21.8125 -25.375 Z M 34.296875 -25.375 "/></g></g><g style="fill:#000000;fill-opacity:1;"><g transform="translate(157.754234, 91.804731)"><path style="stroke:none" d="M 44.609375 -55.109375 L 44.609375 -35.1875 C 44.609375 -29.4375 42.757812 -25.40625 39.0625 -23.09375 L 44.203125 -1.78125 C 44.535156 -0.59375 44.078125 0 42.828125 0 L 33.109375 0 C 32.179688 0 31.617188 -0.460938 31.421875 -1.390625 L 26.671875 -20.921875 L 17.84375 -20.921875 L 17.84375 -1.59375 C 17.84375 -0.53125 17.3125 0 16.25 0 L 6.546875 0 C 5.484375 0 4.953125 -0.53125 4.953125 -1.59375 L 4.953125 -67.796875 C 4.953125 -68.859375 5.484375 -69.390625 6.546875 -69.390625 L 30.328125 -69.390625 C 35.023438 -69.390625 38.578125 -68.179688 40.984375 -65.765625 C 43.398438 -63.359375 44.609375 -59.804688 44.609375 -55.109375 Z M 17.84375 -33.703125 L 27.75 -33.703125 C 30.394531 -33.703125 31.71875 -35.023438 31.71875 -37.671875 L 31.71875 -52.640625 C 31.71875 -55.273438 30.394531 -56.59375 27.75 -56.59375 L 17.84375 -56.59375 Z M 17.84375 -33.703125 "/></g></g><g style="fill:#000000;fill-opacity:1;"><g transform="translate(198.886604, 91.804731)"><path style="stroke:none" d="M 36.375 -69.390625 L 45.703125 -69.390625 C 46.753906 -69.390625 47.28125 -68.859375 47.28125 -67.796875 L 47.28125 -1.59375 C 47.28125 -0.53125 46.753906 0 45.703125 0 L 37.859375 0 C 37.066406 0 36.472656 -0.425781 36.078125 -1.28125 L 17.453125 -39.15625 L 17.453125 -1.59375 C 17.453125 -0.53125 16.921875 0 15.859375 0 L 6.546875 0 C 5.484375 0 4.953125 -0.53125 4.953125 -1.59375 L 4.953125 -67.796875 C 4.953125 -68.859375 5.484375 -69.390625 6.546875 -69.390625 L 14.375 -69.390625 C 15.164062 -69.390625 15.757812 -68.957031 16.15625 -68.09375 L 34.796875 -30.234375 L 34.796875 -67.796875 C 34.796875 -68.859375 35.320312 -69.390625 36.375 -69.390625 Z M 36.375 -69.390625 "/></g></g><g style="fill:#8ebb7a;fill-opacity:1;"><g transform="translate(242.698846, 91.804731)"><path style="stroke:none" d="M 6.546875 0 L 16.84375 0 C 17.90625 0 18.4375 -0.53125 18.4375 -1.59375 L 18.4375 -67.796875 C 18.4375 -68.859375 17.90625 -69.390625 16.84375 -69.390625 L 6.546875 -69.390625 C 5.484375 -69.390625 4.953125 -68.859375 4.953125 -67.796875 L 4.953125 -1.59375 C 4.953125 -0.53125 5.484375 0 6.546875 0 Z M 6.546875 0 "/></g></g><g style="fill:#000000;fill-opacity:1;"><g transform="translate(257.675028, 91.804731)"><path style="stroke:none" d="M 44.609375 -67.796875 L 44.609375 -57.890625 C 44.609375 -56.828125 44.078125 -56.296875 43.015625 -56.296875 L 18.4375 -56.296875 L 18.4375 -39.359375 L 37.078125 -39.359375 C 38.128906 -39.359375 38.65625 -38.828125 38.65625 -37.765625 L 38.65625 -27.859375 C 38.65625 -26.796875 38.128906 -26.265625 37.078125 -26.265625 L 18.4375 -26.265625 L 18.4375 -1.59375 C 18.4375 -0.53125 17.90625 0 16.84375 0 L 6.546875 0 C 5.484375 0 4.953125 -0.53125 4.953125 -1.59375 L 4.953125 -67.796875 C 4.953125 -68.859375 5.484375 -69.390625 6.546875 -69.390625 L 43.015625 -69.390625 C 44.078125 -69.390625 44.609375 -68.859375 44.609375 -67.796875 Z M 44.609375 -67.796875 "/></g></g><g style="fill:#000000;fill-opacity:1;"><g transform="translate(298.807398, 91.804731)"><path style="stroke:none" d="M 39.453125 -69.390625 L 49.359375 -69.390625 C 50.085938 -69.390625 50.617188 -69.171875 50.953125 -68.734375 C 51.285156 -68.304688 51.285156 -67.765625 50.953125 -67.109375 L 32.8125 -25.96875 L 32.8125 -1.984375 C 32.8125 -0.660156 32.148438 0 30.828125 0 L 21.3125 0 C 19.988281 0 19.328125 -0.660156 19.328125 -1.984375 L 19.328125 -25.96875 L 1.1875 -67.109375 C 0.925781 -67.765625 0.941406 -68.304688 1.234375 -68.734375 C 1.535156 -69.171875 2.050781 -69.390625 2.78125 -69.390625 L 12.6875 -69.390625 C 13.8125 -69.390625 14.570312 -68.859375 14.96875 -67.796875 L 26.0625 -42.328125 L 37.171875 -67.796875 C 37.566406 -68.859375 38.328125 -69.390625 39.453125 -69.390625 Z M 39.453125 -69.390625 "/></g></g><g clip-rule="nonzero" clip-path="url(#a466c742f1)"><path style="fill:none;stroke-width:10;stroke-linecap:butt;stroke-linejoin:miter;stroke:#000000;stroke-opacity:1;stroke-miterlimit:4;" d="M 0 5.000502 L 84.431787 5.000502 " transform="matrix(1.293389,0,0,1.293389,0,99.501157)"/></g><g clip-rule="nonzero" clip-path="url(#86a494c4cf)"><path style="fill:none;stroke-width:10;stroke-linecap:butt;stroke-linejoin:miter;stroke:#000000;stroke-opacity:1;stroke-miterlimit:4;" d="M -0.0000561173 5.000877 L 82.464619 5.000877 " transform="matrix(0,1.292741,-1.292741,0,12.992182,1.414135)"/></g><path style="fill:none;stroke-width:10;stroke-linecap:butt;stroke-linejoin:miter;stroke:#000000;stroke-opacity:1;stroke-miterlimit:4;" d="M -0.000281601 4.999463 L 84.43287 4.999463 " transform="matrix(-1.299799,0,0,-1.299799,374.999634,13.052983)"/><g clip-rule="nonzero" clip-path="url(#43193aeed8)"><path style="fill:none;stroke-width:10;stroke-linecap:butt;stroke-linejoin:miter;stroke:#000000;stroke-opacity:1;stroke-miterlimit:4;" d="M 0.000857908 4.998993 L 82.46478 4.998993 " transform="matrix(0,-1.299148,1.299148,0,361.943071,111.626115)"/></g></g></svg>