<svg xmlns="http://www.w3.org/2000/svg" xmlns:xlink="http://www.w3.org/1999/xlink" width="500" zoomAndPan="magnify" viewBox="0 0 375 262.499992" height="350" preserveAspectRatio="xMidYMid meet" version="1.2"><defs><clipPath id="291790b48c"><path d="M 0.355469 189 L 118 189 L 118 202 L 0.355469 202 Z M 0.355469 189 "/></clipPath><clipPath id="1d679b0b32"><path d="M 259 70 L 374.640625 70 L 374.640625 84 L 259 84 Z M 259 70 "/></clipPath><clipPath id="45ad6e864c"><path d="M 361 68 L 374.640625 68 L 374.640625 188 L 361 188 Z M 361 68 "/></clipPath></defs><g id="a118e1a311"><g style="fill:#ffffff;fill-opacity:1;"><g transform="translate(27.254526, 167.43081)"><path style="stroke:none" d="M 49.28125 -9.59375 L 49.28125 0 L 9.046875 0 L 9.046875 -64.59375 L 19.015625 -64.59375 L 19.015625 -9.59375 Z M 49.28125 -9.59375 "/></g></g><g style="fill:#ffffff;fill-opacity:1;"><g transform="translate(74.682102, 167.43081)"><path style="stroke:none" d="M 48.265625 -6.375 L 48.171875 -6.375 C 46.203125 -4.457031 43.492188 -2.757812 40.046875 -1.28125 C 36.597656 0.1875 33 0.921875 29.25 0.921875 C 24.207031 0.921875 19.765625 -0.132812 15.921875 -2.25 C 12.078125 -4.375 9.078125 -7.296875 6.921875 -11.015625 C 4.765625 -14.742188 3.6875 -18.976562 3.6875 -23.71875 C 3.6875 -29.132812 4.820312 -33.765625 7.09375 -37.609375 C 9.375 -41.453125 12.390625 -44.40625 16.140625 -46.46875 C 19.898438 -48.53125 23.992188 -49.5625 28.421875 -49.5625 C 32.484375 -49.5625 36.175781 -48.5625 39.5 -46.5625 C 42.820312 -44.5625 45.46875 -41.804688 47.4375 -38.296875 C 49.40625 -34.785156 50.390625 -30.691406 50.390625 -26.015625 L 50.296875 -21.96875 L 13.203125 -21.96875 C 13.753906 -17.59375 15.550781 -14.128906 18.59375 -11.578125 C 21.632812 -9.023438 25.492188 -7.75 30.171875 -7.75 C 33.554688 -7.75 36.296875 -8.378906 38.390625 -9.640625 C 40.484375 -10.898438 42.207031 -12.113281 43.5625 -13.28125 Z M 28.421875 -40.78125 C 24.796875 -40.78125 21.628906 -39.9375 18.921875 -38.25 C 16.210938 -36.5625 14.425781 -33.65625 13.5625 -29.53125 L 40.703125 -29.53125 L 40.703125 -30.171875 C 40.515625 -32.265625 39.816406 -34.109375 38.609375 -35.703125 C 37.410156 -37.304688 35.921875 -38.550781 34.140625 -39.4375 C 32.359375 -40.332031 30.453125 -40.78125 28.421875 -40.78125 Z M 28.421875 -40.78125 "/></g></g><g style="fill:#8ebb7a;fill-opacity:1;"><g transform="translate(120.919859, 167.43081)"><path style="stroke:none" d="M 51.765625 -48.453125 L 51.765625 0 L 42.171875 0 L 42.171875 -7.46875 C 40.691406 -5.4375 38.503906 -3.53125 35.609375 -1.75 C 32.722656 0.03125 29.375 0.921875 25.5625 0.921875 C 21.5 0.921875 17.789062 -0.148438 14.4375 -2.296875 C 11.082031 -4.453125 8.421875 -7.4375 6.453125 -11.25 C 4.484375 -15.070312 3.5 -19.441406 3.5 -24.359375 C 3.5 -29.285156 4.515625 -33.640625 6.546875 -37.421875 C 8.578125 -41.203125 11.375 -44.15625 14.9375 -46.28125 C 18.507812 -48.40625 22.570312 -49.46875 27.125 -49.46875 C 30.507812 -49.46875 33.476562 -48.726562 36.03125 -47.25 C 38.582031 -45.769531 40.628906 -44.046875 42.171875 -42.078125 L 42.171875 -48.453125 Z M 27.78125 -7.84375 C 30.726562 -7.84375 33.304688 -8.566406 35.515625 -10.015625 C 37.734375 -11.460938 39.457031 -13.429688 40.6875 -15.921875 C 41.925781 -18.410156 42.546875 -21.222656 42.546875 -24.359375 C 42.546875 -27.429688 41.925781 -30.195312 40.6875 -32.65625 C 39.457031 -35.125 37.734375 -37.082031 35.515625 -38.53125 C 33.304688 -39.976562 30.726562 -40.703125 27.78125 -40.703125 C 24.945312 -40.703125 22.421875 -39.992188 20.203125 -38.578125 C 17.992188 -37.160156 16.273438 -35.21875 15.046875 -32.75 C 13.816406 -30.289062 13.203125 -27.492188 13.203125 -24.359375 C 13.203125 -21.222656 13.816406 -18.410156 15.046875 -15.921875 C 16.273438 -13.429688 17.992188 -11.460938 20.203125 -10.015625 C 22.421875 -8.566406 24.945312 -7.84375 27.78125 -7.84375 Z M 27.78125 -7.84375 "/></g></g><g style="fill:#ffffff;fill-opacity:1;"><g transform="translate(171.4954, 167.43081)"><path style="stroke:none" d="M 33.78125 -38.203125 C 33.164062 -38.515625 32.410156 -38.773438 31.515625 -38.984375 C 30.617188 -39.203125 29.679688 -39.3125 28.703125 -39.3125 C 26.734375 -39.3125 24.796875 -38.800781 22.890625 -37.78125 C 20.984375 -36.769531 19.394531 -35.328125 18.125 -33.453125 C 16.863281 -31.578125 16.234375 -29.347656 16.234375 -26.765625 L 16.234375 0 L 6.640625 0 L 6.640625 -48.453125 L 16.234375 -48.453125 L 16.234375 -39.3125 C 17.585938 -42.257812 19.632812 -44.6875 22.375 -46.59375 C 25.113281 -48.507812 27.988281 -49.46875 31 -49.46875 C 33.28125 -49.46875 35.035156 -49.160156 36.265625 -48.546875 Z M 33.78125 -38.203125 "/></g></g><g style="fill:#ffffff;fill-opacity:1;"><g transform="translate(200.837366, 167.43081)"><path style="stroke:none" d="M 32.015625 -49.46875 C 36.390625 -49.46875 39.773438 -48.570312 42.171875 -46.78125 C 44.566406 -45 46.238281 -42.597656 47.1875 -39.578125 C 48.144531 -36.566406 48.625 -33.21875 48.625 -29.53125 L 48.625 0 L 39.125 0 L 39.125 -28.890625 C 39.125 -31.222656 38.816406 -33.3125 38.203125 -35.15625 C 37.585938 -37 36.539062 -38.441406 35.0625 -39.484375 C 33.59375 -40.535156 31.535156 -40.96875 28.890625 -40.78125 C 26.421875 -40.78125 24.234375 -40.257812 22.328125 -39.21875 C 20.421875 -38.175781 18.914062 -36.789062 17.8125 -35.0625 C 16.707031 -33.34375 16.15625 -31.4375 16.15625 -29.34375 L 16.15625 0 L 6.640625 0 L 6.640625 -48.453125 L 16.15625 -48.453125 L 16.15625 -40.78125 C 17.625 -43.0625 19.773438 -45.078125 22.609375 -46.828125 C 25.441406 -48.585938 28.578125 -49.46875 32.015625 -49.46875 Z M 32.015625 -49.46875 "/></g></g><g style="fill:#8ebb7a;fill-opacity:1;"><g transform="translate(247.896743, 167.43081)"><path style="stroke:none" d="M 13.015625 -58.96875 C 10.859375 -58.96875 9.257812 -59.519531 8.21875 -60.625 C 7.175781 -61.738281 6.65625 -63.1875 6.65625 -64.96875 C 6.65625 -66.507812 7.175781 -67.894531 8.21875 -69.125 C 9.257812 -70.351562 10.859375 -70.96875 13.015625 -70.96875 C 15.171875 -70.96875 16.769531 -70.410156 17.8125 -69.296875 C 18.863281 -68.191406 19.390625 -66.75 19.390625 -64.96875 C 19.390625 -63.425781 18.863281 -62.039062 17.8125 -60.8125 C 16.769531 -59.582031 15.171875 -58.96875 13.015625 -58.96875 Z M 17.90625 0 L 8.390625 0 L 8.390625 -48.453125 L 17.90625 -48.453125 Z M 17.90625 0 "/></g></g><g style="fill:#ffffff;fill-opacity:1;"><g transform="translate(265.710463, 167.43081)"><path style="stroke:none" d="M 32.9375 -38.84375 L 21.5 -38.84375 L 21.5 0 L 11.90625 0 L 11.90625 -38.84375 L 4.15625 -38.84375 L 4.15625 -47.609375 L 11.90625 -47.609375 L 11.90625 -53.890625 C 11.90625 -58.078125 13.242188 -61.507812 15.921875 -64.1875 C 18.597656 -66.863281 22.054688 -68.203125 26.296875 -68.203125 C 28.753906 -68.203125 30.796875 -67.738281 32.421875 -66.8125 C 34.054688 -65.882812 35.242188 -64.992188 35.984375 -64.140625 L 32.765625 -56.84375 C 32.148438 -57.457031 31.347656 -58.023438 30.359375 -58.546875 C 29.378906 -59.078125 28.394531 -59.34375 27.40625 -59.34375 C 25.1875 -59.34375 23.644531 -58.816406 22.78125 -57.765625 C 21.925781 -56.722656 21.5 -55.429688 21.5 -53.890625 L 21.5 -47.609375 L 32.9375 -47.609375 Z M 32.9375 -38.84375 "/></g></g><g style="fill:#ffffff;fill-opacity:1;"><g transform="translate(294.129688, 167.43081)"><path style="stroke:none" d="M 14.765625 21.21875 L 22.703125 3.046875 L 22.984375 2.40625 L 0.46875 -48.453125 L 11.53125 -48.453125 L 26.671875 -12.828125 C 26.859375 -12.453125 27.039062 -11.988281 27.21875 -11.4375 C 27.40625 -10.882812 27.625 -10.269531 27.875 -9.59375 C 28.113281 -10.269531 28.34375 -10.929688 28.5625 -11.578125 C 28.78125 -12.222656 29.007812 -12.851562 29.25 -13.46875 L 41.890625 -48.453125 L 53.15625 -48.453125 L 33.21875 0 L 25.015625 21.21875 Z M 14.765625 21.21875 "/></g></g><g clip-rule="nonzero" clip-path="url(#291790b48c)"><path style="fill:none;stroke-width:10;stroke-linecap:butt;stroke-linejoin:miter;stroke:#ffffff;stroke-opacity:1;stroke-miterlimit:4;" d="M 0.00125958 5.000655 L 84.434619 5.000655 " transform="matrix(1.285592,0,0,1.285592,2.756193,189.125884)"/></g><path style="fill:none;stroke-width:10;stroke-linecap:butt;stroke-linejoin:miter;stroke:#ffffff;stroke-opacity:1;stroke-miterlimit:4;" d="M -0.000948905 4.999395 L 82.462237 4.999395 " transform="matrix(0,1.284948,-1.284948,0,15.670058,91.630126)"/><g clip-rule="nonzero" clip-path="url(#1d679b0b32)"><path style="fill:none;stroke-width:10;stroke-linecap:butt;stroke-linejoin:miter;stroke:#ffffff;stroke-opacity:1;stroke-miterlimit:4;" d="M 0.000204803 5.001287 L 84.433564 5.001287 " transform="matrix(-1.285592,0,0,-1.285592,374.633076,83.132741)"/></g><g clip-rule="nonzero" clip-path="url(#45ad6e864c)"><path style="fill:none;stroke-width:10;stroke-linecap:butt;stroke-linejoin:miter;stroke:#ffffff;stroke-opacity:1;stroke-miterlimit:4;" d="M -0.000314814 5.000453 L 82.462871 5.000453 " transform="matrix(0,-1.284948,1.284948,0,361.719207,180.628502)"/></g></g></svg>